<svg xmlns="http://www.w3.org/2000/svg" viewBox="0 0 2364 868" role="img" aria-labelledby="title desc">
<title id="title">Mora Core</title>
<desc id="desc">Logotipo Mora Core branco com contorno preto e fundo transparente.</desc>
<path d="M 1556 471 L 1560 515 L 1579 551 L 1595 567 L 1620 582 L 1664 593 L 1686 593 L 1716 588 L 1749 575 L 1773 559 L 1793 577 L 1810 586 L 1835 592 L 1864 590 L 1886 583 L 1905 572 L 1923 556 L 1936 538 L 1934 581 L 1940 591 L 1952 593 L 2005 579 L 2014 568 L 2021 478 L 2028 471 L 2037 468 L 2058 476 L 2055 492 L 2056 516 L 2067 547 L 2085 569 L 2115 586 L 2154 590 L 2186 583 L 2230 560 L 2246 547 L 2250 538 L 2248 529 L 2212 496 L 2245 483 L 2250 475 L 2249 460 L 2240 432 L 2231 416 L 2214 399 L 2197 390 L 2181 386 L 2156 386 L 2123 396 L 2100 411 L 2096 396 L 2074 387 L 2052 387 L 2028 396 L 2022 386 L 2012 383 L 1956 393 L 1948 398 L 1945 405 L 1942 445 L 1919 416 L 1897 403 L 1874 397 L 1840 399 L 1805 414 L 1777 441 L 1761 473 L 1756 509 L 1748 497 L 1737 490 L 1695 508 L 1678 509 L 1667 506 L 1654 497 L 1646 483 L 1646 465 L 1655 448 L 1675 430 L 1699 421 L 1716 422 L 1738 433 L 1747 431 L 1798 368 L 1796 355 L 1774 339 L 1752 329 L 1724 323 L 1700 323 L 1665 331 L 1640 343 L 1613 362 L 1596 379 L 1578 404 L 1561 443 Z M 1866 472 L 1876 485 L 1876 498 L 1873 504 L 1859 517 L 1840 516 L 1831 504 L 1831 491 L 1835 482 L 1852 470 Z M 111 573 L 113 581 L 119 587 L 203 604 L 214 601 L 220 592 L 264 445 L 309 560 L 316 566 L 326 566 L 331 563 L 411 442 L 427 661 L 438 668 L 534 629 L 541 623 L 543 599 L 538 486 L 553 520 L 565 537 L 581 554 L 602 570 L 628 583 L 652 590 L 705 593 L 754 582 L 782 569 L 808 552 L 844 517 L 874 467 L 867 582 L 873 590 L 881 592 L 969 584 L 976 575 L 983 522 L 1094 657 L 1103 663 L 1114 661 L 1189 592 L 1191 576 L 1168 545 L 1238 572 L 1255 575 L 1264 568 L 1289 518 L 1295 515 L 1388 506 L 1428 636 L 1436 641 L 1446 640 L 1534 607 L 1544 597 L 1543 583 L 1434 198 L 1425 192 L 1326 195 L 1316 202 L 1160 524 L 1158 535 L 1112 480 L 1142 467 L 1164 453 L 1196 421 L 1212 394 L 1221 369 L 1225 346 L 1225 317 L 1218 287 L 1201 259 L 1179 240 L 1149 225 L 1121 217 L 1076 211 L 1017 212 L 904 224 L 895 235 L 885 344 L 876 319 L 858 288 L 839 267 L 810 246 L 781 233 L 747 226 L 713 226 L 678 233 L 630 255 L 588 289 L 556 332 L 541 365 L 533 393 L 525 253 L 525 203 L 518 193 L 502 191 L 423 196 L 411 200 L 345 312 L 314 219 L 308 211 L 291 209 L 213 219 L 203 229 Z M 1355 379 L 1366 412 L 1339 414 Z M 733 337 L 752 347 L 770 372 L 775 406 L 768 435 L 754 458 L 732 477 L 705 486 L 679 483 L 664 474 L 647 451 L 642 434 L 642 408 L 647 389 L 660 366 L 682 346 L 706 336 Z M 1105 344 L 1103 361 L 1084 378 L 1051 389 L 998 394 L 1007 332 L 1073 329 L 1094 334 Z" fill="#000" fill-rule="evenodd"/>
<path d="M 1883 411 L 1872 409 L 1846 410 L 1817 421 L 1805 429 L 1790 444 L 1777 465 L 1769 495 L 1772 527 L 1777 540 L 1787 555 L 1799 566 L 1813 574 L 1829 579 L 1850 580 L 1879 573 L 1908 554 L 1923 536 L 1931 521 L 1938 490 L 1937 472 L 1932 454 L 1923 438 L 1914 428 L 1902 419 Z M 1869 460 L 1882 470 L 1887 479 L 1887 503 L 1881 514 L 1866 527 L 1857 530 L 1839 529 L 1830 524 L 1820 510 L 1818 503 L 1820 484 L 1825 475 L 1836 464 L 1851 458 Z M 2188 400 L 2158 398 L 2138 403 L 2121 411 L 2092 435 L 2074 465 L 2067 496 L 2072 529 L 2088 555 L 2110 571 L 2136 578 L 2153 578 L 2174 574 L 2202 563 L 2237 538 L 2237 535 L 2206 507 L 2177 525 L 2158 530 L 2139 528 L 2126 518 L 2238 472 L 2231 442 L 2220 422 L 2207 409 Z M 2177 460 L 2144 475 L 2114 485 L 2121 464 L 2131 453 L 2143 446 L 2152 444 L 2164 446 L 2173 453 Z M 2085 403 L 2071 399 L 2049 400 L 2031 407 L 2015 419 L 2013 418 L 2015 401 L 2013 395 L 1958 405 L 1947 581 L 2002 566 L 2009 474 L 2021 461 L 2030 457 L 2044 457 L 2057 463 L 2087 407 Z M 1757 344 L 1720 335 L 1695 336 L 1668 343 L 1647 353 L 1629 365 L 1610 382 L 1594 402 L 1580 427 L 1572 450 L 1568 489 L 1571 508 L 1580 531 L 1589 544 L 1606 560 L 1623 570 L 1646 578 L 1685 581 L 1706 578 L 1731 570 L 1765 550 L 1764 545 L 1736 502 L 1724 510 L 1702 519 L 1676 521 L 1664 518 L 1650 510 L 1638 496 L 1633 482 L 1633 467 L 1639 450 L 1650 435 L 1670 419 L 1697 409 L 1718 410 L 1740 421 L 1786 364 L 1779 357 Z M 784 247 L 753 239 L 715 238 L 687 243 L 659 253 L 632 268 L 611 284 L 585 311 L 568 336 L 553 368 L 544 404 L 542 434 L 547 472 L 555 496 L 572 526 L 594 549 L 614 563 L 639 574 L 674 581 L 712 580 L 751 570 L 785 553 L 815 530 L 836 507 L 855 478 L 870 442 L 877 407 L 877 371 L 871 341 L 857 309 L 837 282 L 810 260 Z M 739 326 L 759 337 L 770 348 L 783 371 L 787 389 L 787 412 L 781 436 L 765 464 L 739 487 L 727 493 L 708 498 L 689 498 L 674 494 L 661 487 L 646 473 L 633 449 L 629 429 L 629 412 L 634 389 L 651 358 L 678 334 L 690 328 L 710 323 Z M 909 235 L 907 237 L 879 579 L 962 574 L 974 493 L 1106 651 L 1170 593 L 1180 581 L 1091 474 L 1120 464 L 1150 448 L 1173 429 L 1195 400 L 1208 369 L 1213 340 L 1212 313 L 1203 284 L 1187 262 L 1169 248 L 1146 237 L 1113 228 L 1072 223 L 1038 223 Z M 1115 336 L 1118 343 L 1116 363 L 1105 378 L 1088 390 L 1070 397 L 1047 402 L 993 408 L 984 407 L 992 336 L 996 321 L 1037 317 L 1075 317 L 1097 322 Z M 1329 207 L 1171 532 L 1252 563 L 1283 504 L 1397 492 L 1439 629 L 1531 595 L 1532 590 L 1424 205 Z M 1358 347 L 1383 423 L 1319 427 L 1318 425 Z M 512 204 L 420 209 L 342 341 L 334 323 L 301 221 L 216 231 L 154 455 L 124 576 L 203 592 L 207 591 L 263 407 L 319 553 L 322 554 L 422 404 L 438 655 L 530 617 L 513 270 Z" fill="#fff" fill-rule="evenodd"/>
</svg>
